<svg aria-hidden="true" style="position: absolute; width: 0; height: 0; overflow: hidden;" version="1.1" xmlns="http://www.w3.org/2000/svg" xmlns:xlink="http://www.w3.org/1999/xlink">
<defs>
<symbol id="icon-cat-logo" viewBox="0 0 32 32">
<path fill="#000" style="fill: var(--color1, #000)" d="M2.555 10.693s-0.473-8.813 1.441-9.253c1.915-0.44 5.217 2.721 5.217 2.721l-6.659 6.533zM20.643 4.376s3.535-3.52 6.040-2.933c2.504 0.587 0.591 7.544 0.591 7.544l-6.631-4.611z"></path>
<path fill="#f07f2e" style="fill: var(--color2, #f07f2e); stroke: var(--color1, #000)" stroke="#000" stroke-linejoin="miter" stroke-linecap="butt" stroke-miterlimit="10" stroke-width="0.5333" d="M27.557 26.809c-2.653 2.096-4.427 2.781-7.444 3.597-2.013 0.545-7.083 0.517-11.808-1.384-3.309-1.448-4.607-3.023-5.231-3.88-0.544-0.747-1.651-2.403-1.713-4.213-0.093-2.637-0.015-5.211 1.196-10.232 1.209-5.024 6.659-6.533 6.659-6.533 5.953-1.404 10.896-0.3 12.612 0 1.715 0.303 6.589 3.388 7.008 9.573 0.064 0.924 1.1 4.213 1.2 6.976 0.029 0.847 0.053 1.975-0.368 3.133-0.487 1.333-1.573 2.512-2.111 2.961z"></path>
<path fill="#000" style="fill: var(--color1, #000)" d="M11.149 14.331c0.049-0.090 0.095-0.166 0.146-0.238l-0.005 0.007 0.075-0.107 0.044-0.057c0.109-0.132 0.224-0.251 0.347-0.36l0.003-0.003c0.015-0.013 0.093-0.079 0.032-0.029-0.063 0.048 0.028-0.019 0.048-0.033 0.044-0.031 0.096-0.062 0.149-0.089l0.008-0.004 0.083-0.041c0.055-0.028-0.097 0.031 0.009-0.001 0.060-0.019 0.12-0.033 0.179-0.047 0.080-0.020-0.101 0.003-0.019 0.003 0.035 0 0.071-0.004 0.108-0.003 0.033 0 0.067 0.005 0.097 0.005 0.059 0-0.095-0.027-0.040-0.004 0.013 0.005 0.031 0.004 0.044 0.009l0.101 0.027 0.044 0.017c0.092 0.027-0.053-0.035-0.008-0.004 0.076 0.052 0.165 0.091 0.243 0.141 0.018 0.013 0.034 0.024 0.048 0.036l-0.002-0.001c-0.075-0.057 0 0 0.015 0.015 0.043 0.040 0.085 0.076 0.127 0.117 0.208 0.207 0.336 0.389 0.495 0.645 0.133 0.213 0.417 0.296 0.64 0.167 0.138-0.084 0.228-0.233 0.228-0.403 0-0.086-0.023-0.166-0.063-0.235l0.001 0.002c-0.5-0.801-1.259-1.613-2.296-1.432-0.623 0.109-1.111 0.6-1.467 1.088-0.081 0.111-0.16 0.225-0.224 0.344-0.038 0.066-0.060 0.146-0.060 0.23 0 0.171 0.091 0.321 0.227 0.404l0.002 0.001c0.209 0.12 0.52 0.053 0.639-0.169zM24.8 13.664c0.067-0.123 0.136-0.229 0.212-0.329l-0.004 0.006c0.012-0.015 0.025-0.033 0.037-0.052l0.003-0.004c0.035-0.045-0.077 0.096-0.007 0.013 0.107-0.129 0.219-0.245 0.339-0.352l0.003-0.003c0.015-0.013 0.093-0.076 0.029-0.027-0.064 0.051 0.024-0.016 0.044-0.028 0.048-0.033 0.097-0.064 0.149-0.092l0.077-0.040c0.055-0.027-0.103 0.033 0.005 0 0.056-0.016 0.113-0.029 0.171-0.044 0.079-0.019-0.104 0.005-0.023 0.003 0.035 0 0.068-0.004 0.104-0.003 0.032 0 0.063 0.007 0.093 0.007 0.060 0-0.097-0.027-0.043-0.005 0.012 0.005 0.027 0.005 0.040 0.008l0.096 0.027c0.013 0.004 0.028 0.011 0.043 0.013 0.091 0.027-0.056-0.035-0.013-0.005 0.073 0.049 0.159 0.085 0.233 0.136 0.017 0.012 0.031 0.023 0.044 0.035l-0.002-0.001c-0.080-0.061-0.005-0.004 0.009 0.011 0.040 0.037 0.083 0.072 0.121 0.111 0.205 0.204 0.313 0.363 0.473 0.615 0.132 0.213 0.417 0.297 0.639 0.168 0.138-0.084 0.229-0.233 0.229-0.404 0-0.085-0.023-0.165-0.062-0.234l0.001 0.002c-0.485-0.776-1.219-1.556-2.221-1.381-0.604 0.107-1.072 0.579-1.419 1.051-0.077 0.107-0.151 0.216-0.213 0.331-0.038 0.067-0.060 0.146-0.060 0.231 0 0.171 0.090 0.321 0.226 0.404l0.002 0.001c0.213 0.124 0.524 0.057 0.643-0.167z"></path>
<path fill="none" stroke="#000" style="stroke: var(--color1, #000)" stroke-linejoin="miter" stroke-linecap="butt" stroke-miterlimit="10" stroke-width="0.5333" d="M14.163 18.363l-4.835-0.156M14.243 20.021l-4.197 0.621M26.899 17.647l4.835-0.156M26.82 19.3l4.197 0.619M19.983 19.513s2.339 3.224 4.317-0.059M22.16 17.105v3.64"></path>
<path fill="#000" style="fill: var(--color1, #000)" d="M22.117 17.269c0.98 0 1.773-0.557 1.773-1.245 0-0.687-0.793-1.244-1.773-1.244-0.979 0-1.773 0.557-1.773 1.244 0 0.688 0.795 1.245 1.773 1.245z"></path>
<path fill="#000" style="fill: var(--color1, #000); stroke: var(--color1, #000)" stroke="#000" stroke-linejoin="miter" stroke-linecap="butt" stroke-miterlimit="10" stroke-width="0.5333" d="M6.587 15.508c1.573-1.621-3.453-5.024-3.823-5.169-0.017-0.007-1.431 6.36-1.357 10.195 0.017 0.895 0.187 1.827 0.187 1.827 0.295 0.261 0.488 1.101 2.691 0.029 1.232-0.6 1.476-1.824 0.353-2.059-2.157-0.452 0.007-0.933-0.347-1.787-0.893-2.153 0.643-1.331 2.296-3.036zM27.935 21.832c0.183-1.907 1.973-1.368 1.973-1.368 0.595 3.48-1.488 5.844-2.989 6.672-0.365 0-0.715-2.128 0.105-2.4 0.819-0.271 0.729-0.997 0.911-2.904z"></path>
</symbol>
<symbol id="icon-instagram" viewBox="0 0 32 32">
<path  d="M17.37 2.668c0.974-0.004 1.946 0.006 2.92 0.030l0.26 0.008 0.948 0.040c1.42 0.068 2.386 0.292 3.236 0.62 0.88 0.34 1.62 0.798 2.362 1.54 0.678 0.666 1.202 1.472 1.538 2.36 0.328 0.85 0.552 1.82 0.62 3.238l0.040 0.95 0.008 0.258c0.024 0.972 0.034 1.944 0.030 2.918v2.74c0 0.115 0.001 0.251 0.001 0.388 0 0.89-0.011 1.778-0.033 2.664l0.003-0.131-0.008 0.258c-0.010 0.3-0.024 0.594-0.040 0.95-0.066 1.418-0.292 2.386-0.62 3.236-0.334 0.89-0.86 1.696-1.538 2.36-0.65 0.662-1.438 1.185-2.317 1.525l-0.045 0.015c-0.85 0.328-1.818 0.552-3.236 0.62l-0.95 0.040-0.26 0.008c-0.754 0.020-1.642 0.031-2.532 0.031-0.136 0-0.271-0-0.407-0.001l0.021 0h-2.74c-0.112 0-0.245 0.001-0.378 0.001-0.893 0-1.784-0.011-2.672-0.033l0.132 0.003-0.26-0.008c-0.484-0.017-0.814-0.031-1.143-0.048l0.195 0.008c-1.42-0.066-2.386-0.292-3.238-0.62-0.924-0.354-1.711-0.878-2.359-1.539l-0.001-0.001c-0.662-0.649-1.186-1.436-1.525-2.315l-0.015-0.045c-0.328-0.85-0.552-1.82-0.62-3.236-0.007-0.102-0.022-0.433-0.034-0.764l-0.006-0.186-0.006-0.26c-0.022-0.8-0.034-1.742-0.034-2.687 0-0.081 0-0.162 0-0.243l-0 0.012v-2.74c-0.002-0.974 0.006-1.946 0.030-2.92l0.010-0.256c0.010-0.3 0.024-0.596 0.040-0.95 0.066-1.42 0.29-2.386 0.62-3.238 0.334-0.89 0.86-1.694 1.54-2.36 0.666-0.68 1.472-1.204 2.36-1.54 0.852-0.328 1.82-0.552 3.24-0.62l0.948-0.040 0.26-0.006c0.97-0.024 1.942-0.036 2.916-0.034l2.74 0.002zM16 9.334c-3.682 0-6.666 2.984-6.666 6.666s2.984 6.666 6.666 6.666v0c3.682 0 6.666-2.984 6.666-6.666s-2.984-6.666-6.666-6.666v0zM16 12.002c0.027-0.001 0.058-0.001 0.089-0.001 2.209 0 4 1.791 4 4s-1.791 4-4 4c-0.031 0-0.063-0-0.094-0.001l0.005 0c-2.209 0-4-1.791-4-4s1.791-4 4-4v0zM23 7.334c-0.92 0-1.666 0.746-1.666 1.666s0.746 1.666 1.666 1.666v0c0.921 0 1.667-0.746 1.667-1.667s-0.746-1.667-1.667-1.667v0 0.002z"></path>
</symbol>
<symbol id="icon-facebook" viewBox="0 0 32 32">
<path  d="M21.33 5.314h2.92v-5.088c-1.238-0.144-2.672-0.226-4.125-0.226-0.046 0-0.092 0-0.138 0l0.007-0c-4.212 0-7.094 2.65-7.094 7.52v4.48h-4.65v5.688h4.648v14.312h5.698v-14.31h4.46l0.708-5.69h-5.17v-3.92c0.002-1.644 0.444-2.768 2.736-2.768z"></path>
</symbol>
<symbol id="icon-youtube" viewBox="0 0 32 32">
<path  d="M16.326 5.334c0.712 0.004 2.492 0.020 4.386 0.096l0.672 0.030c1.906 0.090 3.81 0.244 4.754 0.506 1.26 0.356 2.25 1.388 2.584 2.696 0.534 2.080 0.6 6.136 0.608 7.12l0.002 0.202v0.232c-0.010 0.982-0.076 5.040-0.61 7.12-0.33 1.299-1.306 2.311-2.557 2.687l-0.027 0.007c-0.944 0.264-2.848 0.418-4.754 0.508l-0.672 0.030c-1.894 0.074-3.674 0.094-4.386 0.096h-0.654c-1.506-0.008-7.808-0.076-9.814-0.634-1.278-0.384-2.254-1.397-2.578-2.67l-0.006-0.026c-0.532-2.080-0.6-6.136-0.608-7.118v-0.434c0.008-0.984 0.076-5.040 0.608-7.12 0.33-1.3 1.307-2.313 2.56-2.687l0.027-0.007c2.004-0.56 8.306-0.626 9.814-0.634h0.652zM13.332 11.334v9.332l8-4.666-8-4.666z"></path>
</symbol>
<symbol id="icon-tiktok" viewBox="0 0 32 32">
<path  d="M21.334 10.994v9.672c0 0 0 0 0 0 0 4.787-3.881 8.668-8.668 8.668s-8.668-3.881-8.668-8.668c0-4.787 3.881-8.668 8.668-8.668 0.71 0 1.399 0.085 2.059 0.246l-0.059-0.012v4.218c-0.585-0.284-1.272-0.449-1.998-0.449-2.577 0-4.666 2.089-4.666 4.666s2.089 4.666 4.666 4.666c2.577 0 4.666-2.089 4.666-4.666 0-0 0-0 0-0.001v0-18h4c0 0.001 0 0.001 0 0.002 0 3.682 2.984 6.666 6.666 6.666v0 4c-0.005 0-0.010 0-0.016 0-2.527 0-4.847-0.882-6.67-2.356l0.020 0.016z"></path>
</symbol>
</defs>
</svg>
